<mxfile host="app.diagrams.net" modified="2024-01-04T10:14:37.458Z" agent="Mozilla/5.0 (Windows NT 10.0; Win64; x64) AppleWebKit/537.36 (KHTML, like Gecko) Chrome/120.0.0.0 Safari/537.36" etag="mI_iTzL6fFXVJssI70QI" version="21.7.4" type="device">
  <diagram name="Page-1" id="TWkM8APuPOha4a9ghbjL">
    <mxGraphModel dx="1434" dy="772" grid="1" gridSize="10" guides="1" tooltips="1" connect="1" arrows="1" fold="1" page="1" pageScale="1" pageWidth="850" pageHeight="1100" math="0" shadow="0">
      <root>
        <mxCell id="0" />
        <mxCell id="1" parent="0" />
        <mxCell id="P8rqHsparNftGzP8x87H-1" value="" style="rounded=0;whiteSpace=wrap;html=1;" vertex="1" parent="1">
          <mxGeometry x="10" y="120" width="1090" height="610" as="geometry" />
        </mxCell>
        <mxCell id="P8rqHsparNftGzP8x87H-2" value="&lt;h1&gt;Currency Converter&lt;/h1&gt;" style="text;html=1;strokeColor=none;fillColor=none;align=center;verticalAlign=middle;whiteSpace=wrap;rounded=0;" vertex="1" parent="1">
          <mxGeometry x="430" y="170" width="250" height="30" as="geometry" />
        </mxCell>
        <mxCell id="P8rqHsparNftGzP8x87H-3" value="" style="rounded=1;whiteSpace=wrap;html=1;" vertex="1" parent="1">
          <mxGeometry x="250" y="230" width="580" height="360" as="geometry" />
        </mxCell>
        <mxCell id="P8rqHsparNftGzP8x87H-4" value="From Currency" style="rounded=1;whiteSpace=wrap;html=1;" vertex="1" parent="1">
          <mxGeometry x="340" y="300" width="130" height="30" as="geometry" />
        </mxCell>
        <mxCell id="P8rqHsparNftGzP8x87H-5" value="To Currency" style="rounded=1;whiteSpace=wrap;html=1;" vertex="1" parent="1">
          <mxGeometry x="620" y="300" width="130" height="30" as="geometry" />
        </mxCell>
        <mxCell id="P8rqHsparNftGzP8x87H-6" value="&lt;h1&gt;0.00&lt;/h1&gt;" style="rounded=0;whiteSpace=wrap;html=1;" vertex="1" parent="1">
          <mxGeometry x="345" y="410" width="120" height="50" as="geometry" />
        </mxCell>
        <mxCell id="P8rqHsparNftGzP8x87H-7" value="&lt;h1&gt;0.00&lt;/h1&gt;" style="rounded=0;whiteSpace=wrap;html=1;" vertex="1" parent="1">
          <mxGeometry x="625" y="410" width="120" height="50" as="geometry" />
        </mxCell>
        <mxCell id="P8rqHsparNftGzP8x87H-8" value="&lt;h2&gt;Convert&lt;/h2&gt;" style="rounded=0;whiteSpace=wrap;html=1;" vertex="1" parent="1">
          <mxGeometry x="480" y="510" width="120" height="50" as="geometry" />
        </mxCell>
      </root>
    </mxGraphModel>
  </diagram>
</mxfile>
